<mxfile host="app.diagrams.net" agent="Mozilla/5.0 (X11; Linux x86_64) AppleWebKit/537.36 (KHTML, like Gecko) Chrome/131.0.0.0 Safari/537.36" version="26.0.5">
  <diagram name="Page-1" id="wvrJlw7LrmA51bzFc2xR">
    <mxGraphModel dx="1444" dy="1936" grid="1" gridSize="10" guides="1" tooltips="1" connect="1" arrows="1" fold="1" page="1" pageScale="1" pageWidth="850" pageHeight="1100" math="0" shadow="0">
      <root>
        <mxCell id="0" />
        <mxCell id="1" parent="0" />
        <mxCell id="8OkJzlZ0-ArHExa1Jrqa-1" value="Download&lt;div&gt;Assemblies&lt;/div&gt;" style="rounded=1;whiteSpace=wrap;html=1;absoluteArcSize=1;arcSize=14;strokeWidth=2;fillColor=#dae8fc;strokeColor=#6c8ebf;" parent="1" vertex="1">
          <mxGeometry x="78" y="10" width="100" height="100" as="geometry" />
        </mxCell>
        <mxCell id="8OkJzlZ0-ArHExa1Jrqa-5" style="edgeStyle=orthogonalEdgeStyle;rounded=0;orthogonalLoop=1;jettySize=auto;html=1;" parent="1" source="8OkJzlZ0-ArHExa1Jrqa-2" edge="1">
          <mxGeometry relative="1" as="geometry">
            <mxPoint x="358" y="60" as="targetPoint" />
          </mxGeometry>
        </mxCell>
        <mxCell id="8OkJzlZ0-ArHExa1Jrqa-2" value="Assemblies" style="strokeWidth=2;html=1;shape=mxgraph.flowchart.multi-document;whiteSpace=wrap;fillColor=#d5e8d4;strokeColor=#82b366;" parent="1" vertex="1">
          <mxGeometry x="228" y="30" width="88" height="60" as="geometry" />
        </mxCell>
        <mxCell id="8OkJzlZ0-ArHExa1Jrqa-3" style="edgeStyle=orthogonalEdgeStyle;rounded=0;orthogonalLoop=1;jettySize=auto;html=1;entryX=0;entryY=0.5;entryDx=0;entryDy=0;entryPerimeter=0;" parent="1" source="8OkJzlZ0-ArHExa1Jrqa-1" target="8OkJzlZ0-ArHExa1Jrqa-2" edge="1">
          <mxGeometry relative="1" as="geometry" />
        </mxCell>
        <mxCell id="8OkJzlZ0-ArHExa1Jrqa-4" value="ChewBBACA SchemaCreate&lt;div&gt;and AlleleCall&lt;/div&gt;" style="rounded=1;whiteSpace=wrap;html=1;absoluteArcSize=1;arcSize=14;strokeWidth=2;fillColor=#e1d5e7;strokeColor=#9673a6;" parent="1" vertex="1">
          <mxGeometry x="363" y="10" width="100" height="100" as="geometry" />
        </mxCell>
        <mxCell id="8OkJzlZ0-ArHExa1Jrqa-13" style="edgeStyle=orthogonalEdgeStyle;rounded=0;orthogonalLoop=1;jettySize=auto;html=1;entryX=1;entryY=0.5;entryDx=0;entryDy=0;" parent="1" source="8OkJzlZ0-ArHExa1Jrqa-6" target="8OkJzlZ0-ArHExa1Jrqa-12" edge="1">
          <mxGeometry relative="1" as="geometry" />
        </mxCell>
        <mxCell id="8OkJzlZ0-ArHExa1Jrqa-23" style="edgeStyle=orthogonalEdgeStyle;rounded=0;orthogonalLoop=1;jettySize=auto;html=1;entryX=1;entryY=0.5;entryDx=0;entryDy=0;" parent="1" source="8OkJzlZ0-ArHExa1Jrqa-6" target="8OkJzlZ0-ArHExa1Jrqa-22" edge="1">
          <mxGeometry relative="1" as="geometry">
            <Array as="points">
              <mxPoint x="352" y="440" />
            </Array>
          </mxGeometry>
        </mxCell>
        <mxCell id="8OkJzlZ0-ArHExa1Jrqa-27" style="edgeStyle=orthogonalEdgeStyle;rounded=0;orthogonalLoop=1;jettySize=auto;html=1;entryX=1;entryY=0.5;entryDx=0;entryDy=0;" parent="1" source="8OkJzlZ0-ArHExa1Jrqa-6" target="8OkJzlZ0-ArHExa1Jrqa-26" edge="1">
          <mxGeometry relative="1" as="geometry">
            <Array as="points">
              <mxPoint x="352" y="660" />
            </Array>
          </mxGeometry>
        </mxCell>
        <mxCell id="8OkJzlZ0-ArHExa1Jrqa-6" value="Schema" style="strokeWidth=2;html=1;shape=mxgraph.flowchart.multi-document;whiteSpace=wrap;fillColor=#d5e8d4;strokeColor=#82b366;" parent="1" vertex="1">
          <mxGeometry x="308" y="180" width="88" height="60" as="geometry" />
        </mxCell>
        <mxCell id="8OkJzlZ0-ArHExa1Jrqa-36" style="edgeStyle=orthogonalEdgeStyle;rounded=0;orthogonalLoop=1;jettySize=auto;html=1;entryX=0.5;entryY=0;entryDx=0;entryDy=0;" parent="1" source="8OkJzlZ0-ArHExa1Jrqa-8" target="8OkJzlZ0-ArHExa1Jrqa-35" edge="1">
          <mxGeometry relative="1" as="geometry">
            <Array as="points">
              <mxPoint x="544" y="110" />
              <mxPoint x="664" y="110" />
            </Array>
          </mxGeometry>
        </mxCell>
        <mxCell id="8OkJzlZ0-ArHExa1Jrqa-8" value="AlleleCall&lt;div&gt;temp Folder&lt;/div&gt;" style="strokeWidth=2;html=1;shape=mxgraph.flowchart.multi-document;whiteSpace=wrap;fillColor=#d5e8d4;strokeColor=#82b366;" parent="1" vertex="1">
          <mxGeometry x="500" y="30" width="88" height="60" as="geometry" />
        </mxCell>
        <mxCell id="8OkJzlZ0-ArHExa1Jrqa-10" style="edgeStyle=orthogonalEdgeStyle;rounded=0;orthogonalLoop=1;jettySize=auto;html=1;entryX=0.5;entryY=0;entryDx=0;entryDy=0;entryPerimeter=0;" parent="1" source="8OkJzlZ0-ArHExa1Jrqa-4" target="8OkJzlZ0-ArHExa1Jrqa-6" edge="1">
          <mxGeometry relative="1" as="geometry" />
        </mxCell>
        <mxCell id="8OkJzlZ0-ArHExa1Jrqa-12" value="SchemaAnnotation" style="rounded=1;whiteSpace=wrap;html=1;absoluteArcSize=1;arcSize=14;strokeWidth=2;fillColor=#dae8fc;strokeColor=#6c8ebf;" parent="1" vertex="1">
          <mxGeometry x="168" y="160" width="100" height="100" as="geometry" />
        </mxCell>
        <mxCell id="8OkJzlZ0-ArHExa1Jrqa-17" style="edgeStyle=orthogonalEdgeStyle;rounded=0;orthogonalLoop=1;jettySize=auto;html=1;entryX=0;entryY=0.5;entryDx=0;entryDy=0;" parent="1" source="8OkJzlZ0-ArHExa1Jrqa-14" target="8OkJzlZ0-ArHExa1Jrqa-12" edge="1">
          <mxGeometry relative="1" as="geometry" />
        </mxCell>
        <mxCell id="8OkJzlZ0-ArHExa1Jrqa-14" value="GenBank&lt;div&gt;files&lt;/div&gt;" style="strokeWidth=2;html=1;shape=mxgraph.flowchart.multi-document;whiteSpace=wrap;fillColor=#fff2cc;strokeColor=#d6b656;" parent="1" vertex="1">
          <mxGeometry x="32" y="140" width="88" height="60" as="geometry" />
        </mxCell>
        <mxCell id="8OkJzlZ0-ArHExa1Jrqa-16" style="edgeStyle=orthogonalEdgeStyle;rounded=0;orthogonalLoop=1;jettySize=auto;html=1;entryX=0;entryY=0.5;entryDx=0;entryDy=0;" parent="1" source="8OkJzlZ0-ArHExa1Jrqa-15" target="8OkJzlZ0-ArHExa1Jrqa-12" edge="1">
          <mxGeometry relative="1" as="geometry" />
        </mxCell>
        <mxCell id="8OkJzlZ0-ArHExa1Jrqa-15" value="Proteome file" style="strokeWidth=2;html=1;shape=mxgraph.flowchart.document2;whiteSpace=wrap;size=0.25;fillColor=#fff2cc;strokeColor=#d6b656;" parent="1" vertex="1">
          <mxGeometry x="20" y="220" width="100" height="60" as="geometry" />
        </mxCell>
        <mxCell id="8OkJzlZ0-ArHExa1Jrqa-19" style="edgeStyle=orthogonalEdgeStyle;rounded=0;orthogonalLoop=1;jettySize=auto;html=1;entryX=0;entryY=0.5;entryDx=0;entryDy=0;" parent="1" source="8OkJzlZ0-ArHExa1Jrqa-18" target="8OkJzlZ0-ArHExa1Jrqa-12" edge="1">
          <mxGeometry relative="1" as="geometry" />
        </mxCell>
        <mxCell id="8OkJzlZ0-ArHExa1Jrqa-18" value="External Schemas to match" style="strokeWidth=2;html=1;shape=mxgraph.flowchart.multi-document;whiteSpace=wrap;fillColor=#fff2cc;strokeColor=#d6b656;" parent="1" vertex="1">
          <mxGeometry x="32" y="300" width="88" height="60" as="geometry" />
        </mxCell>
        <mxCell id="8OkJzlZ0-ArHExa1Jrqa-20" value="Merged annotations file" style="strokeWidth=2;html=1;shape=mxgraph.flowchart.document2;whiteSpace=wrap;size=0.25;fillColor=#d5e8d4;strokeColor=#82b366;" parent="1" vertex="1">
          <mxGeometry x="168" y="290" width="100" height="60" as="geometry" />
        </mxCell>
        <mxCell id="8OkJzlZ0-ArHExa1Jrqa-21" style="edgeStyle=orthogonalEdgeStyle;rounded=0;orthogonalLoop=1;jettySize=auto;html=1;entryX=0.5;entryY=0;entryDx=0;entryDy=0;entryPerimeter=0;" parent="1" source="8OkJzlZ0-ArHExa1Jrqa-12" target="8OkJzlZ0-ArHExa1Jrqa-20" edge="1">
          <mxGeometry relative="1" as="geometry" />
        </mxCell>
        <mxCell id="8OkJzlZ0-ArHExa1Jrqa-22" value="IdentifyParalagous&lt;div&gt;Loci&lt;/div&gt;" style="rounded=1;whiteSpace=wrap;html=1;absoluteArcSize=1;arcSize=14;strokeWidth=2;fillColor=#dae8fc;strokeColor=#6c8ebf;" parent="1" vertex="1">
          <mxGeometry x="168" y="390" width="100" height="100" as="geometry" />
        </mxCell>
        <mxCell id="8OkJzlZ0-ArHExa1Jrqa-24" value="File of paralogous loci" style="strokeWidth=2;html=1;shape=mxgraph.flowchart.document2;whiteSpace=wrap;size=0.25;fillColor=#d5e8d4;strokeColor=#82b366;" parent="1" vertex="1">
          <mxGeometry x="168" y="520" width="100" height="60" as="geometry" />
        </mxCell>
        <mxCell id="8OkJzlZ0-ArHExa1Jrqa-25" style="edgeStyle=orthogonalEdgeStyle;rounded=0;orthogonalLoop=1;jettySize=auto;html=1;entryX=0.5;entryY=0;entryDx=0;entryDy=0;entryPerimeter=0;" parent="1" source="8OkJzlZ0-ArHExa1Jrqa-22" target="8OkJzlZ0-ArHExa1Jrqa-24" edge="1">
          <mxGeometry relative="1" as="geometry" />
        </mxCell>
        <mxCell id="8OkJzlZ0-ArHExa1Jrqa-26" value="MatchSchema" style="rounded=1;whiteSpace=wrap;html=1;absoluteArcSize=1;arcSize=14;strokeWidth=2;fillColor=#dae8fc;strokeColor=#6c8ebf;" parent="1" vertex="1">
          <mxGeometry x="168" y="610" width="100" height="100" as="geometry" />
        </mxCell>
        <mxCell id="8OkJzlZ0-ArHExa1Jrqa-29" style="edgeStyle=orthogonalEdgeStyle;rounded=0;orthogonalLoop=1;jettySize=auto;html=1;entryX=0;entryY=0.5;entryDx=0;entryDy=0;" parent="1" source="8OkJzlZ0-ArHExa1Jrqa-28" target="8OkJzlZ0-ArHExa1Jrqa-26" edge="1">
          <mxGeometry relative="1" as="geometry" />
        </mxCell>
        <mxCell id="8OkJzlZ0-ArHExa1Jrqa-28" value="External Schemas to match" style="strokeWidth=2;html=1;shape=mxgraph.flowchart.multi-document;whiteSpace=wrap;fillColor=#fff2cc;strokeColor=#d6b656;" parent="1" vertex="1">
          <mxGeometry x="32" y="630" width="88" height="60" as="geometry" />
        </mxCell>
        <mxCell id="8OkJzlZ0-ArHExa1Jrqa-30" value="Matched loci between the two schemas" style="strokeWidth=2;html=1;shape=mxgraph.flowchart.document2;whiteSpace=wrap;size=0.25;fillColor=#d5e8d4;strokeColor=#82b366;" parent="1" vertex="1">
          <mxGeometry x="168" y="740" width="100" height="60" as="geometry" />
        </mxCell>
        <mxCell id="8OkJzlZ0-ArHExa1Jrqa-31" style="edgeStyle=orthogonalEdgeStyle;rounded=0;orthogonalLoop=1;jettySize=auto;html=1;entryX=0.5;entryY=0;entryDx=0;entryDy=0;entryPerimeter=0;" parent="1" source="8OkJzlZ0-ArHExa1Jrqa-26" target="8OkJzlZ0-ArHExa1Jrqa-30" edge="1">
          <mxGeometry relative="1" as="geometry" />
        </mxCell>
        <mxCell id="GO195v3brgO66-ffzUd_-2" style="edgeStyle=orthogonalEdgeStyle;rounded=0;orthogonalLoop=1;jettySize=auto;html=1;entryX=0.5;entryY=0;entryDx=0;entryDy=0;" edge="1" parent="1" source="8OkJzlZ0-ArHExa1Jrqa-35" target="8OkJzlZ0-ArHExa1Jrqa-40">
          <mxGeometry relative="1" as="geometry" />
        </mxCell>
        <mxCell id="8OkJzlZ0-ArHExa1Jrqa-35" value="IdentifySpurious&lt;div&gt;Genes&amp;nbsp;&lt;/div&gt;" style="rounded=1;whiteSpace=wrap;html=1;absoluteArcSize=1;arcSize=14;strokeWidth=2;fillColor=#dae8fc;strokeColor=#6c8ebf;" parent="1" vertex="1">
          <mxGeometry x="614" y="130" width="100" height="100" as="geometry" />
        </mxCell>
        <mxCell id="GO195v3brgO66-ffzUd_-3" style="edgeStyle=orthogonalEdgeStyle;rounded=0;orthogonalLoop=1;jettySize=auto;html=1;" edge="1" parent="1" source="8OkJzlZ0-ArHExa1Jrqa-40" target="8OkJzlZ0-ArHExa1Jrqa-42">
          <mxGeometry relative="1" as="geometry" />
        </mxCell>
        <mxCell id="8OkJzlZ0-ArHExa1Jrqa-40" value="User chooses what possible new loci to retain" style="rounded=1;whiteSpace=wrap;html=1;absoluteArcSize=1;arcSize=14;strokeWidth=2;fillColor=#f8cecc;strokeColor=#b85450;" parent="1" vertex="1">
          <mxGeometry x="614" y="270" width="100" height="100" as="geometry" />
        </mxCell>
        <mxCell id="8OkJzlZ0-ArHExa1Jrqa-42" value="CreateSchema&lt;div&gt;Structure&lt;/div&gt;" style="rounded=1;whiteSpace=wrap;html=1;absoluteArcSize=1;arcSize=14;strokeWidth=2;fillColor=#dae8fc;strokeColor=#6c8ebf;" parent="1" vertex="1">
          <mxGeometry x="614" y="400" width="100" height="100" as="geometry" />
        </mxCell>
        <mxCell id="8OkJzlZ0-ArHExa1Jrqa-44" value="&lt;div&gt;Schema&lt;/div&gt;" style="strokeWidth=2;html=1;shape=mxgraph.flowchart.multi-document;whiteSpace=wrap;fillColor=#d5e8d4;strokeColor=#82b366;" parent="1" vertex="1">
          <mxGeometry x="620" y="530" width="88" height="60" as="geometry" />
        </mxCell>
        <mxCell id="8OkJzlZ0-ArHExa1Jrqa-59" value="SchemaRefinery modules" style="rounded=0;whiteSpace=wrap;html=1;fillColor=#dae8fc;strokeColor=#6c8ebf;" parent="1" vertex="1">
          <mxGeometry x="494" y="775" width="120" height="60" as="geometry" />
        </mxCell>
        <mxCell id="8OkJzlZ0-ArHExa1Jrqa-60" value="Manual user input" style="rounded=0;whiteSpace=wrap;html=1;fillColor=#f8cecc;strokeColor=#b85450;" parent="1" vertex="1">
          <mxGeometry x="494" y="855" width="120" height="60" as="geometry" />
        </mxCell>
        <mxCell id="8OkJzlZ0-ArHExa1Jrqa-61" value="ChewBBACA" style="rounded=0;whiteSpace=wrap;html=1;fillColor=#e1d5e7;strokeColor=#9673a6;" parent="1" vertex="1">
          <mxGeometry x="494" y="695" width="120" height="60" as="geometry" />
        </mxCell>
        <mxCell id="8OkJzlZ0-ArHExa1Jrqa-62" value="Output files" style="rounded=0;whiteSpace=wrap;html=1;fillColor=#d5e8d4;strokeColor=#82b366;" parent="1" vertex="1">
          <mxGeometry x="494" y="935" width="120" height="60" as="geometry" />
        </mxCell>
        <mxCell id="8OkJzlZ0-ArHExa1Jrqa-63" value="Color description:" style="text;html=1;align=center;verticalAlign=middle;resizable=0;points=[];autosize=1;strokeColor=none;fillColor=none;" parent="1" vertex="1">
          <mxGeometry x="384" y="660" width="110" height="30" as="geometry" />
        </mxCell>
        <mxCell id="8OkJzlZ0-ArHExa1Jrqa-64" value="Input file" style="rounded=0;whiteSpace=wrap;html=1;fillColor=#fff2cc;strokeColor=#d6b656;" parent="1" vertex="1">
          <mxGeometry x="494" y="1020" width="120" height="60" as="geometry" />
        </mxCell>
        <mxCell id="kS7Rdw5KaEIiwjgRS0G--1" value="AdaptLoci" style="rounded=1;whiteSpace=wrap;html=1;absoluteArcSize=1;arcSize=14;strokeWidth=2;fillColor=#dae8fc;strokeColor=#6c8ebf;" parent="1" vertex="1">
          <mxGeometry x="168" y="835" width="100" height="100" as="geometry" />
        </mxCell>
        <mxCell id="kS7Rdw5KaEIiwjgRS0G--3" style="edgeStyle=orthogonalEdgeStyle;rounded=0;orthogonalLoop=1;jettySize=auto;html=1;entryX=0;entryY=0.5;entryDx=0;entryDy=0;" parent="1" source="kS7Rdw5KaEIiwjgRS0G--2" target="kS7Rdw5KaEIiwjgRS0G--1" edge="1">
          <mxGeometry relative="1" as="geometry" />
        </mxCell>
        <mxCell id="kS7Rdw5KaEIiwjgRS0G--2" value="Fasta files" style="strokeWidth=2;html=1;shape=mxgraph.flowchart.multi-document;whiteSpace=wrap;fillColor=#fff2cc;strokeColor=#d6b656;" parent="1" vertex="1">
          <mxGeometry x="32" y="855" width="88" height="60" as="geometry" />
        </mxCell>
        <mxCell id="kS7Rdw5KaEIiwjgRS0G--4" value="Schema" style="strokeWidth=2;html=1;shape=mxgraph.flowchart.multi-document;whiteSpace=wrap;fillColor=#fff2cc;strokeColor=#d6b656;" parent="1" vertex="1">
          <mxGeometry x="174" y="980" width="88" height="60" as="geometry" />
        </mxCell>
        <mxCell id="kS7Rdw5KaEIiwjgRS0G--5" style="edgeStyle=orthogonalEdgeStyle;rounded=0;orthogonalLoop=1;jettySize=auto;html=1;entryX=0.5;entryY=0;entryDx=0;entryDy=0;entryPerimeter=0;" parent="1" source="kS7Rdw5KaEIiwjgRS0G--1" target="kS7Rdw5KaEIiwjgRS0G--4" edge="1">
          <mxGeometry relative="1" as="geometry" />
        </mxCell>
        <mxCell id="GO195v3brgO66-ffzUd_-1" style="edgeStyle=orthogonalEdgeStyle;rounded=0;orthogonalLoop=1;jettySize=auto;html=1;entryX=0;entryY=0.5;entryDx=0;entryDy=0;entryPerimeter=0;" edge="1" parent="1" source="8OkJzlZ0-ArHExa1Jrqa-4" target="8OkJzlZ0-ArHExa1Jrqa-8">
          <mxGeometry relative="1" as="geometry" />
        </mxCell>
        <mxCell id="GO195v3brgO66-ffzUd_-4" style="edgeStyle=orthogonalEdgeStyle;rounded=0;orthogonalLoop=1;jettySize=auto;html=1;entryX=0.5;entryY=0;entryDx=0;entryDy=0;entryPerimeter=0;" edge="1" parent="1" source="8OkJzlZ0-ArHExa1Jrqa-42" target="8OkJzlZ0-ArHExa1Jrqa-44">
          <mxGeometry relative="1" as="geometry" />
        </mxCell>
        <mxCell id="GO195v3brgO66-ffzUd_-19" style="edgeStyle=orthogonalEdgeStyle;rounded=0;orthogonalLoop=1;jettySize=auto;html=1;entryX=0.5;entryY=0;entryDx=0;entryDy=0;" edge="1" parent="1" source="GO195v3brgO66-ffzUd_-5" target="8OkJzlZ0-ArHExa1Jrqa-35">
          <mxGeometry relative="1" as="geometry" />
        </mxCell>
        <mxCell id="GO195v3brgO66-ffzUd_-5" value="&lt;div&gt;Schema A&lt;/div&gt;" style="strokeWidth=2;html=1;shape=mxgraph.flowchart.multi-document;whiteSpace=wrap;fillColor=#d5e8d4;strokeColor=#82b366;" vertex="1" parent="1">
          <mxGeometry x="620" y="30" width="88" height="60" as="geometry" />
        </mxCell>
        <mxCell id="GO195v3brgO66-ffzUd_-20" style="edgeStyle=orthogonalEdgeStyle;rounded=0;orthogonalLoop=1;jettySize=auto;html=1;entryX=0.5;entryY=0;entryDx=0;entryDy=0;" edge="1" parent="1" source="GO195v3brgO66-ffzUd_-6" target="8OkJzlZ0-ArHExa1Jrqa-35">
          <mxGeometry relative="1" as="geometry">
            <Array as="points">
              <mxPoint x="794" y="110" />
              <mxPoint x="664" y="110" />
            </Array>
          </mxGeometry>
        </mxCell>
        <mxCell id="GO195v3brgO66-ffzUd_-6" value="&lt;div&gt;Schema B&lt;/div&gt;" style="strokeWidth=2;html=1;shape=mxgraph.flowchart.multi-document;whiteSpace=wrap;fillColor=#d5e8d4;strokeColor=#82b366;" vertex="1" parent="1">
          <mxGeometry x="750" y="30" width="88" height="60" as="geometry" />
        </mxCell>
        <mxCell id="GO195v3brgO66-ffzUd_-16" value="" style="swimlane;startSize=0;rounded=0;dashed=1;dashPattern=8 8;fillColor=#60a917;fontColor=#ffffff;strokeColor=#2D7600;strokeWidth=2;" vertex="1" parent="1">
          <mxGeometry x="488" y="10" width="112" height="95" as="geometry" />
        </mxCell>
        <mxCell id="GO195v3brgO66-ffzUd_-21" value="" style="swimlane;startSize=0;dashed=1;dashPattern=12 12;fillColor=#d80073;fontColor=#ffffff;strokeColor=#A50040;strokeWidth=2;" vertex="1" parent="1">
          <mxGeometry x="480" width="370" height="120" as="geometry" />
        </mxCell>
        <mxCell id="GO195v3brgO66-ffzUd_-27" value="" style="swimlane;startSize=0;dashed=1;dashPattern=12 12;fillColor=#d80073;fontColor=#ffffff;strokeColor=#A50040;strokeWidth=2;" vertex="1" parent="1">
          <mxGeometry x="640" y="730" width="200" height="40" as="geometry" />
        </mxCell>
        <mxCell id="GO195v3brgO66-ffzUd_-28" value="Unclassified CDS mode of running" style="text;html=1;align=center;verticalAlign=middle;resizable=0;points=[];autosize=1;strokeColor=none;fillColor=none;" vertex="1" parent="GO195v3brgO66-ffzUd_-27">
          <mxGeometry x="-5" y="5" width="210" height="30" as="geometry" />
        </mxCell>
        <mxCell id="GO195v3brgO66-ffzUd_-32" value="" style="swimlane;startSize=0;rounded=0;dashed=1;dashPattern=8 8;fillColor=#60a917;fontColor=#ffffff;strokeColor=#2D7600;strokeWidth=2;" vertex="1" parent="1">
          <mxGeometry x="640" y="790" width="200" height="45" as="geometry" />
        </mxCell>
        <mxCell id="GO195v3brgO66-ffzUd_-34" value="Schema mode of running" style="text;whiteSpace=wrap;" vertex="1" parent="GO195v3brgO66-ffzUd_-32">
          <mxGeometry x="25" y="10" width="150" height="40" as="geometry" />
        </mxCell>
      </root>
    </mxGraphModel>
  </diagram>
</mxfile>
